<svg width="58" height="65" viewBox="0 0 58 65" fill="none" xmlns="http://www.w3.org/2000/svg">
<path d="M13.2313 12.5122C13.2313 12.5122 13.4142 13.7813 13.6742 15.3201C13.8525 16.5133 18.0197 28.5612 19.5507 32.2334C21.4015 36.6636 22.715 40.7755 22.391 40.9626C21.9491 41.2177 20.2578 39.4448 18.9574 37.3284C17.5254 35.0523 16.6912 34.3556 15.1931 34.2779C13.9692 34.199 13.7937 34.5753 14.1512 36.2149C14.2851 36.9231 14.3841 38.3191 14.338 39.3277C14.2348 42.6865 14.2904 42.8508 17.7875 46.5269L20.9581 49.8416L24.3919 50.687C26.263 51.1385 29.0621 51.5649 30.6191 51.6086C35.2142 51.7442 36.7181 52.1721 37.4664 53.4682C38.3848 55.0589 38.8586 55.3353 40.4235 55.2566C44.8735 55.0047 50.8397 51.3244 53.0708 47.3655C54.4774 44.9038 54.3796 43.7819 52.4554 39.9048C51.5527 38.0693 50.0288 35.0215 49.1262 33.186C48.1725 31.2621 46.3063 28.0977 44.7055 25.8013C41.0322 20.4594 38.5465 18.399 36.414 18.9232C35.6763 19.0741 35.6514 19.1671 36.3508 19.9023C36.9403 20.5831 36.9789 20.718 36.5109 20.7918C36.1947 20.8565 35.7675 20.5926 35.5634 20.2391C34.4069 18.236 31.2481 16.6426 29.4488 17.1316C28.7451 17.3414 28.7327 17.3879 29.9253 18.9774C30.6724 19.9993 31.0171 20.6644 30.8404 20.7664C30.6931 20.8514 30.0152 20.2216 29.3826 19.33C27.876 17.3326 25.3325 15.5804 24.1053 15.6998C22.9835 15.7976 21.3758 16.6865 21.0202 17.3632C20.8696 17.6465 21.2507 18.919 22.0218 20.5947C23.1638 23.1168 23.0493 22.9866 21.0072 19.1774C19.7565 16.8752 18.6577 14.5638 18.5964 14.0494C18.5055 13.5519 17.401 10.8904 17.401 10.8904C17.452 10.9788 17.3499 10.802 17.401 10.8904C17.3624 10.7556 13.2313 12.5122 13.2313 12.5122ZM17.401 10.8904C15.989 7.42443 12.4007 8.82847 13.2313 12.5122C13.2313 12.5122 17.3499 10.802 17.401 10.8904Z" fill="white"/>
</svg>
