<svg width="100" height="100" viewBox="0 0 100 100" fill="none" xmlns="http://www.w3.org/2000/svg">
<path d="M93.0358 52.899L71.9608 67.1526C69.6365 68.7246 66.5 67.0594 66.5 64.2534V35.7463C66.5 32.9403 69.6365 31.2751 71.9608 32.8471L93.0358 47.1006C95.0881 48.4887 95.0881 51.511 93.0358 52.899Z" fill="#FF0000" stroke="black" stroke-width="3"/>
<path d="M6.96417 47.1005L28.0392 32.8469C30.3635 31.2749 33.5 32.9401 33.5 35.7461V64.2533C33.5 67.0592 30.3635 68.7244 28.0392 67.1524L6.96417 52.8989C4.9119 51.5109 4.9119 48.4885 6.96417 47.1005Z" fill="#FF0000" stroke="black" stroke-width="3"/>
<rect x="23.3335" y="43.333" width="53.3333" height="13.3333" fill="#FF0000"/>
<line x1="32" y1="44.5" x2="68" y2="44.5" stroke="black" stroke-width="3"/>
<line x1="32" y1="55.5" x2="68" y2="55.5" stroke="black" stroke-width="3"/>
</svg>
