<svg width="100" height="100" viewBox="0 0 100 100" fill="none" xmlns="http://www.w3.org/2000/svg">
<path d="M52.899 6.96417L67.1526 28.0392C68.7246 30.3635 67.0594 33.5 64.2534 33.5L35.7463 33.5C32.9403 33.5 31.2751 30.3635 32.8471 28.0392L47.1006 6.96417C48.4887 4.9119 51.511 4.9119 52.899 6.96417Z" fill="#FF0000" stroke="black" stroke-width="3"/>
<path d="M47.1005 93.0358L32.8469 71.9608C31.2749 69.6365 32.9401 66.5 35.7461 66.5H64.2533C67.0592 66.5 68.7244 69.6365 67.1524 71.9608L52.8989 93.0358C51.5109 95.0881 48.4885 95.0881 47.1005 93.0358Z" fill="#FF0000" stroke="black" stroke-width="3"/>
<rect x="43.333" y="76.6665" width="53.3333" height="13.3333" transform="rotate(-90 43.333 76.6665)" fill="#FF0000"/>
<line x1="44.5" y1="68" x2="44.5" y2="32" stroke="black" stroke-width="3"/>
<line x1="55.5" y1="68" x2="55.5" y2="32" stroke="black" stroke-width="3"/>
</svg>
