<svg width="100" height="100" viewBox="0 0 100 100" fill="none" xmlns="http://www.w3.org/2000/svg">
<circle cx="46.5776" cy="58.6261" r="28.2454" transform="rotate(20 46.5776 58.6261)" fill="#FF0000" stroke="black" stroke-width="3"/>
<rect x="51.467" y="24.3188" width="14" height="9" transform="rotate(20 51.467 24.3188)" fill="#FF0000"/>
<path d="M55.2512 33.9259C55.2512 33.9259 53.3182 39.2368 56.9806 29.1743C60.6431 19.1117 63.5157 17.3075 70.8095 15.5313C78.1033 13.7552 81.4311 19.3973 81.4311 19.3973C81.4311 19.3973 84.3009 24.5577 83.0298 26.3108" stroke="#FF0000" stroke-width="3"/>
<path d="M86.0546 24.131C86.2733 23.7714 87.09 23.511 87.459 23.2918C87.9925 22.9749 88.8417 22.7464 89.2043 22.2462C89.5669 21.7463 90.8443 21.9834 91.0897 21.3091" stroke="#FF0000" stroke-width="2" stroke-linecap="round"/>
<path d="M86.5831 27.2971C87.9815 27.591 89.5408 27.4686 90.8698 27.9523C91.2265 28.0822 92.3762 28.6959 92.6239 28.4614" stroke="#FF0000" stroke-width="2" stroke-linecap="round"/>
<path d="M84.0291 29.3408C84.1323 29.6466 84.0497 29.9484 84.1787 30.2716C84.2885 30.5467 84.3949 30.9876 84.4137 31.2837C84.4451 31.7783 84.5203 32.3675 84.6681 32.8344C84.8188 33.3104 84.8516 34.1173 84.8268 34.6088C84.8065 35.0088 85.001 35.4103 85.0444 35.787" stroke="#FF0000" stroke-width="2" stroke-linecap="round"/>
<path d="M80.9256 28.9874C80.7712 29.2514 80.433 29.4209 80.1873 29.5949C79.9572 29.7578 79.8164 30.051 79.5862 30.1807C79.1003 30.4545 78.7219 30.8826 78.3138 31.269C78.1699 31.4052 77.8159 31.549 77.7381 31.706C77.6584 31.8669 77.6678 31.9487 77.5155 32.0415C77.2734 32.1889 77.3333 32.5929 76.9491 32.4531" stroke="#FF0000" stroke-width="2" stroke-linecap="round"/>
<path d="M80.0543 25.6961C77.9591 24.9335 76.0795 23.6029 73.9829 22.8398" stroke="#FF0000" stroke-width="2" stroke-linecap="round"/>
</svg>
