<svg width="100" height="100" viewBox="0 0 100 100" fill="none" xmlns="http://www.w3.org/2000/svg">
<path d="M35.7972 53.3732L67.3947 6.78953C68.0575 5.81242 69.5691 6.58929 69.1605 7.69699L55.7288 44.1056C55.4879 44.7586 55.971 45.4518 56.667 45.4518H69.9086C70.749 45.4518 71.2146 46.4255 70.687 47.0796L33.9267 92.6525C33.1735 93.5862 31.7149 92.6446 32.2557 91.5739L50.028 56.3853C50.3639 55.7202 49.8805 54.9345 49.1354 54.9345H36.6248C35.8225 54.9345 35.3468 54.0371 35.7972 53.3732Z" fill="#FF0000" stroke="black" stroke-width="3"/>
<path d="M34.0455 36.5207L35.97 35.4974L35.5915 33.3509L37.1594 34.865L39.0839 33.8417L38.1284 35.8007L39.6963 37.3148L37.5379 37.0115L36.5824 38.9705L36.2039 36.824L34.0455 36.5207Z" fill="#FF0000"/>
<path d="M72.5015 63.2946L71.1596 61.577L69.1114 62.3225L70.3302 60.5155L68.9883 58.798L71.0835 59.3987L72.3023 57.5918L72.3784 59.7701L74.4736 60.3708L72.4254 61.1163L72.5015 63.2946Z" fill="#FF0000"/>
</svg>
